<svg width="24" height="24" viewBox="0 0 24 24" fill="none" xmlns="http://www.w3.org/2000/svg">
<path fill-rule="evenodd" clip-rule="evenodd" d="M16.35 8.38004L20.35 5.52004C21.14 4.95004 22.2 5.74004 21.86 6.67004L17.7 18.32C17.56 18.71 17.18 18.98 16.76 18.98H7.22998C6.80998 18.98 6.42998 18.72 6.28998 18.32L2.12998 6.67004C1.79998 5.74004 2.85998 4.95004 3.65998 5.51004L7.65998 8.37004C8.18998 8.76004 8.93998 8.53004 9.16998 7.91004L11.07 2.88004C11.39 2.01004 12.62 2.01004 12.94 2.88004L14.83 7.92004C15.06 8.53004 15.82 8.76004 16.35 8.38004ZM9.49998 14.75H14.5C14.91 14.75 15.25 14.41 15.25 14C15.25 13.59 14.91 13.25 14.5 13.25H9.49998C9.08998 13.25 8.74998 13.59 8.74998 14C8.74998 14.41 9.08998 14.75 9.49998 14.75ZM7 22.0001H17C17.41 22.0001 17.75 21.6601 17.75 21.2501C17.75 20.8401 17.41 20.5001 17 20.5001H7C6.59 20.5001 6.25 20.8401 6.25 21.2501C6.25 21.6601 6.59 22.0001 7 22.0001Z" fill="#0C1323"/>
</svg>
