<svg width="32" height="32" viewBox="0 0 32 32" fill="none" xmlns="http://www.w3.org/2000/svg">
<path d="M23.4933 14.336C23.221 14.336 22.9599 14.2278 22.7673 14.0353C22.5748 13.8428 22.4666 13.5816 22.4666 13.3093C22.4666 12.816 21.9733 11.7893 21.1466 10.896C20.3333 10.0293 19.44 9.52267 18.6933 9.52267C18.421 9.52267 18.1599 9.4145 17.9673 9.22196C17.7748 9.02943 17.6666 8.76829 17.6666 8.496C17.6666 7.936 18.1333 7.46933 18.6933 7.46933C20.0266 7.46933 21.4266 8.18933 22.6533 9.48267C23.8 10.696 24.5333 12.2027 24.5333 13.296C24.5333 13.8693 24.0666 14.336 23.4933 14.336V14.336Z" fill="#ED1C24"/>
<path d="M28.3066 14.3333C28.0343 14.3333 27.7732 14.2252 27.5806 14.0326C27.3881 13.8401 27.2799 13.579 27.2799 13.3067C27.2799 8.57333 23.4266 4.73333 18.7066 4.73333C18.4343 4.73333 18.1732 4.62517 17.9806 4.43263C17.7881 4.24009 17.6799 3.97896 17.6799 3.70667C17.6799 3.14667 18.1333 2.66667 18.6933 2.66667C24.5599 2.66667 29.3333 7.44 29.3333 13.3067C29.3333 13.8667 28.8666 14.3333 28.3066 14.3333Z" fill="#ED1C24"/>
<path d="M14.7333 19.9333L12.2666 22.4C11.7466 22.92 10.92 22.92 10.3866 22.4133C10.24 22.2667 10.0933 22.1333 9.94663 21.9867C8.59832 20.6293 7.35476 19.1718 6.22663 17.6267C5.13329 16.1067 4.25329 14.5867 3.61329 13.08C2.98663 11.56 2.66663 10.1067 2.66663 8.72C2.66663 7.81333 2.82663 6.94667 3.14663 6.14667C3.46663 5.33333 3.97329 4.58667 4.67996 3.92C5.53329 3.08 6.46663 2.66667 7.45329 2.66667C7.82663 2.66667 8.19996 2.74667 8.53329 2.90667C8.87996 3.06667 9.18663 3.30667 9.42663 3.65333L12.52 8.01334C12.76 8.34667 12.9333 8.65333 13.0533 8.94667C13.1733 9.22667 13.24 9.50667 13.24 9.76C13.24 10.08 13.1466 10.4 12.96 10.7067C12.7866 11.0133 12.5333 11.3333 12.2133 11.6533L11.2 12.7067C11.0533 12.8533 10.9866 13.0267 10.9866 13.24C10.9866 13.3467 11 13.44 11.0266 13.5467C11.0666 13.6533 11.1066 13.7333 11.1333 13.8133C11.3733 14.2533 11.7866 14.8267 12.3733 15.52C12.9733 16.2133 13.6133 16.92 14.3066 17.6267C14.44 17.76 14.5866 17.8933 14.72 18.0267C15.2533 18.5467 15.2666 19.4 14.7333 19.9333V19.9333Z" fill="#ED1C24"/>
<path d="M29.2933 24.44C29.2915 24.9432 29.1776 25.4397 28.9599 25.8933C28.7333 26.3733 28.4399 26.8267 28.0533 27.2533C27.3999 27.9733 26.6799 28.4933 25.8666 28.8267C25.8533 28.8267 25.8399 28.84 25.8266 28.84C25.0399 29.16 24.1866 29.3333 23.2666 29.3333C21.9066 29.3333 20.4533 29.0133 18.9199 28.36C17.3866 27.7067 15.8533 26.8267 14.3333 25.72C13.8133 25.3333 13.2933 24.9467 12.7999 24.5333L17.1599 20.1733C17.5333 20.4533 17.8666 20.6667 18.1466 20.8133C18.2133 20.84 18.2933 20.88 18.3866 20.92C18.4933 20.96 18.5999 20.9733 18.7199 20.9733C18.9466 20.9733 19.1199 20.8933 19.2666 20.7467L20.2799 19.7467C20.6133 19.4133 20.9333 19.16 21.2399 19C21.5466 18.8133 21.8533 18.72 22.1866 18.72C22.4399 18.72 22.7066 18.7733 22.9999 18.8933C23.2933 19.0133 23.5999 19.1867 23.9333 19.4133L28.3466 22.5467C28.6933 22.7867 28.9333 23.0667 29.0799 23.4C29.2133 23.7333 29.2933 24.0667 29.2933 24.44V24.44Z" fill="#ED1C24"/>
</svg>
