<svg width="16" height="16" viewBox="0 0 16 16" fill="none" xmlns="http://www.w3.org/2000/svg">
<path fill-rule="evenodd" clip-rule="evenodd" d="M14 11.1447V3.45141C14 2.54008 13.3067 1.83341 12.4887 1.83341H5.48467C5.06467 2.13008 4.678 2.47275 4.34133 2.87541C3.62867 3.72808 3.13467 4.70675 2.968 5.84475C2.67267 7.85341 3.266 9.55875 4.608 10.9821C4.84667 11.2374 4.87733 11.4354 4.688 11.7774C4.45733 12.1887 4.108 12.4681 3.73667 12.7241C3.71 12.7394 3.68333 12.7581 3.65733 12.7774L3.61733 12.8041C3.558 12.8587 3.59467 12.8854 3.646 12.9094C3.65733 12.9361 3.67133 12.9607 3.68867 12.9847C3.88133 13.1654 4.06867 13.3541 4.25533 13.5421C4.384 13.6721 4.514 13.8021 4.64467 13.9301C4.72467 14.0081 4.80333 14.0874 4.882 14.1674H4.886C4.806 14.0861 4.72533 14.0061 4.644 13.9274C4.51333 13.7994 4.384 13.6687 4.25467 13.5387C4.068 13.3501 3.88067 13.1621 3.688 12.9814C3.67101 12.958 3.6567 12.9327 3.64533 12.9061C4.36867 13.0561 5.07533 12.9541 5.77067 12.7287C6.00667 12.6541 6.242 12.5787 6.48067 12.5154C6.642 12.4707 6.81267 12.4801 6.96867 12.5401C8.768 13.1947 10.5447 13.1341 12.2927 12.3234C12.9233 12.0281 13.5003 11.6297 14 11.1447ZM3.178 1.16675C1.95733 1.16675 1 2.20741 1 3.45141V12.5494C1 13.7934 1.95733 14.8341 3.178 14.8341H12.4887C13.7093 14.8341 14.6667 13.7934 14.6667 12.5494V3.45141C14.6667 2.20741 13.7093 1.16675 12.4887 1.16675H3.17867H3.178ZM6.13267 7.84675H5.706C5.75133 7.78141 5.77933 7.74208 5.81067 7.70341C6.18267 7.20741 6.554 6.70941 6.926 6.20808C7.034 6.06075 7.142 5.91341 7.21 5.74275C7.28667 5.54408 7.204 5.35541 7.01133 5.28608C6.92464 5.26156 6.83473 5.25032 6.74467 5.25275C6.23845 5.24974 5.73222 5.24974 5.226 5.25275C5.15533 5.25275 5.084 5.26208 5.016 5.28008C4.96163 5.29535 4.9125 5.32524 4.87394 5.3665C4.83539 5.40776 4.80889 5.45881 4.79733 5.51408C4.77835 5.59401 4.79117 5.67819 4.83309 5.74885C4.87501 5.81951 4.94275 5.8711 5.022 5.89275C5.09 5.90741 5.16067 5.91675 5.232 5.91675C5.38533 5.91808 5.53867 5.91808 5.69267 5.91808C5.85578 5.91724 6.01889 5.91724 6.182 5.91808C6.20867 5.91541 6.23533 5.91141 6.256 5.94941C6.23067 5.98275 6.20533 6.01875 6.17933 6.05475C5.73933 6.64341 5.29933 7.23475 4.86267 7.82341C4.75467 7.97008 4.698 8.13208 4.77733 8.31275C4.85733 8.49275 5.01867 8.52875 5.184 8.53808C5.27867 8.54475 5.37267 8.54275 5.46667 8.54141L5.58067 8.54075H5.92533C6.26933 8.54141 6.612 8.54208 6.95733 8.53741C7.20133 8.53475 7.332 8.37541 7.306 8.13875C7.28333 7.94941 7.16133 7.85008 6.93733 7.84741C6.67267 7.84541 6.40667 7.84608 6.13267 7.84675ZM8.998 6.26675C9.066 6.17341 9.13667 6.08675 9.25333 6.06275C9.30548 6.05009 9.35982 6.04948 9.41223 6.06095C9.46465 6.07243 9.51376 6.09569 9.55585 6.12897C9.59793 6.16225 9.63189 6.20469 9.65513 6.25305C9.67837 6.30141 9.6903 6.35443 9.69 6.40808C9.69867 7.00808 9.696 7.60941 9.69 8.20941C9.69146 8.28362 9.66951 8.3564 9.62726 8.41743C9.58502 8.47846 9.52463 8.52464 9.45467 8.54941C9.38491 8.57755 9.30769 8.58127 9.23556 8.55997C9.16342 8.53867 9.10061 8.4936 9.05733 8.43208C9.00933 8.36875 8.98933 8.35675 8.92133 8.41408C8.66333 8.63608 8.37067 8.67475 8.056 8.56741C7.55067 8.39275 7.34333 7.97541 7.28667 7.46741C7.22667 6.91875 7.4 6.45008 7.86533 6.16208C8.252 5.91875 8.64333 5.94008 8.998 6.26675ZM7.99333 7.36275C7.99867 7.49475 8.03867 7.62141 8.11267 7.72608C8.15415 7.78685 8.20983 7.83658 8.27489 7.87095C8.33995 7.90531 8.41242 7.92327 8.486 7.92327C8.55958 7.92327 8.63205 7.90531 8.69711 7.87095C8.76217 7.83658 8.81785 7.78685 8.85933 7.72608C9.018 7.49808 9.018 7.12275 8.85933 6.89475C8.82233 6.83837 8.7723 6.79174 8.71347 6.75878C8.65464 6.72583 8.58873 6.70752 8.52133 6.70541C8.20867 6.68408 7.99067 6.93941 7.99333 7.36275ZM10.9647 7.38075C10.942 6.60941 11.4213 6.03275 12.1027 6.01208C12.826 5.98808 13.354 6.50141 13.3767 7.25208C13.3993 8.01208 12.9593 8.54875 12.2813 8.62075C11.5407 8.69875 10.9533 8.13141 10.9647 7.38075ZM11.6767 7.30875C11.6713 7.45875 11.714 7.60608 11.7987 7.72875C11.8338 7.77989 11.8793 7.82314 11.9321 7.85575C11.9849 7.88835 12.0439 7.9096 12.1053 7.91813C12.1668 7.92666 12.2294 7.92229 12.2891 7.90529C12.3488 7.88829 12.4042 7.85905 12.452 7.81941C12.4822 7.79438 12.5097 7.76622 12.534 7.73541C12.6987 7.50675 12.6987 7.12275 12.5367 6.89475C12.4993 6.83892 12.4492 6.79269 12.3906 6.7598C12.332 6.7269 12.2665 6.70827 12.1993 6.70541C11.8927 6.68741 11.6767 6.93341 11.6767 7.30875ZM10.7147 6.78341L10.7153 7.24875C10.716 7.55875 10.7167 7.86875 10.7153 8.17941C10.7173 8.39275 10.5587 8.57008 10.3573 8.57608C10.3219 8.5766 10.2865 8.57256 10.252 8.56408C10.1107 8.52475 10.0027 8.36608 10.0027 8.17675V5.79008L10.002 5.64941C10.0013 5.55608 10.0007 5.46275 10.002 5.36941C10.0053 5.13808 10.1447 4.98808 10.3547 4.98808C10.57 4.98475 10.7147 5.13475 10.7147 5.37475C10.7167 5.68808 10.716 6.00141 10.7153 6.31475V6.78341H10.7147Z" fill="white"/>
</svg>
