<svg width="40" height="40" viewBox="0 0 40 40" fill="none" xmlns="http://www.w3.org/2000/svg">
<path fill-rule="evenodd" clip-rule="evenodd" d="M35 27.8617V8.62841C35 6.35008 33.2667 4.58341 31.2217 4.58341H13.7117C12.6617 5.32508 11.695 6.18175 10.8533 7.18842C9.07167 9.32008 7.83667 11.7667 7.42 14.6117C6.68167 19.6334 8.165 23.8967 11.52 27.4551C12.1167 28.0934 12.1933 28.5884 11.72 29.4434C11.1433 30.4717 10.27 31.1701 9.34167 31.8101C9.275 31.8484 9.20833 31.8951 9.14333 31.9434L9.04333 32.0101C8.895 32.1467 8.98667 32.2134 9.115 32.2734C9.14333 32.3401 9.17833 32.4017 9.22167 32.4617C9.70333 32.9134 10.1717 33.3851 10.6383 33.8551C10.96 34.1801 11.285 34.5051 11.6117 34.8251C11.8117 35.0201 12.0083 35.2184 12.205 35.4184H12.215C12.015 35.2151 11.8133 35.0151 11.61 34.8184C11.2833 34.4984 10.96 34.1717 10.6367 33.8467C10.17 33.3751 9.70167 32.9051 9.22 32.4534C9.17753 32.3948 9.14175 32.3316 9.11333 32.2651C10.9217 32.6401 12.6883 32.3851 14.4267 31.8217C15.0167 31.6351 15.605 31.4467 16.2017 31.2884C16.605 31.1767 17.0317 31.2001 17.4217 31.3501C21.92 32.9867 26.3617 32.8351 30.7317 30.8084C32.3082 30.07 33.7507 29.0742 35 27.8617ZM7.945 2.91675C4.89333 2.91675 2.5 5.51841 2.5 8.62841V31.3734C2.5 34.4834 4.89333 37.0851 7.945 37.0851H31.2217C34.2733 37.0851 36.6667 34.4834 36.6667 31.3734V8.62841C36.6667 5.51841 34.2733 2.91675 31.2217 2.91675H7.94667H7.945ZM15.3317 19.6167H14.265C14.3783 19.4534 14.4483 19.3551 14.5267 19.2584C15.4567 18.0184 16.385 16.7734 17.315 15.5201C17.585 15.1517 17.855 14.7834 18.025 14.3567C18.2167 13.8601 18.01 13.3884 17.5283 13.2151C17.3116 13.1538 17.0868 13.1257 16.8617 13.1317C15.5961 13.1242 14.3305 13.1242 13.065 13.1317C12.8883 13.1317 12.71 13.1551 12.54 13.2001C12.4041 13.2383 12.2812 13.313 12.1849 13.4161C12.0885 13.5193 12.0222 13.6469 11.9933 13.7851C11.9459 13.9849 11.9779 14.1954 12.0827 14.372C12.1875 14.5486 12.3569 14.6776 12.555 14.7317C12.725 14.7684 12.9017 14.7917 13.08 14.7917C13.4633 14.7951 13.8467 14.7951 14.2317 14.7951C14.6394 14.793 15.0472 14.793 15.455 14.7951C15.5217 14.7884 15.5883 14.7784 15.64 14.8734C15.5767 14.9567 15.5133 15.0467 15.4483 15.1367C14.3483 16.6084 13.2483 18.0867 12.1567 19.5584C11.8867 19.9251 11.745 20.3301 11.9433 20.7817C12.1433 21.2317 12.5467 21.3217 12.96 21.3451C13.1967 21.3617 13.4317 21.3567 13.6667 21.3534L13.9517 21.3517H14.8133C15.6733 21.3534 16.53 21.3551 17.3933 21.3434C18.0033 21.3367 18.33 20.9384 18.265 20.3467C18.2083 19.8734 17.9033 19.6251 17.3433 19.6184C16.6817 19.6134 16.0167 19.6151 15.3317 19.6167ZM22.495 15.6667C22.665 15.4334 22.8417 15.2167 23.1333 15.1567C23.2637 15.1251 23.3995 15.1236 23.5306 15.1523C23.6616 15.1809 23.7844 15.2391 23.8896 15.3223C23.9948 15.4055 24.0797 15.5116 24.1378 15.6325C24.1959 15.7534 24.2257 15.8859 24.225 16.0201C24.2467 17.5201 24.24 19.0234 24.225 20.5234C24.2286 20.7089 24.1738 20.8909 24.0682 21.0435C23.9626 21.196 23.8116 21.3115 23.6367 21.3734C23.4623 21.4438 23.2692 21.4531 23.0889 21.3998C22.9086 21.3466 22.7515 21.2339 22.6433 21.0801C22.5233 20.9217 22.4733 20.8917 22.3033 21.0351C21.6583 21.5901 20.9267 21.6867 20.14 21.4184C18.8767 20.9817 18.3583 19.9384 18.2167 18.6684C18.0667 17.2967 18.5 16.1251 19.6633 15.4051C20.63 14.7967 21.6083 14.8501 22.495 15.6667ZM19.9833 18.4067C19.9967 18.7367 20.0967 19.0534 20.2817 19.3151C20.3854 19.467 20.5246 19.5913 20.6872 19.6772C20.8499 19.7632 21.0311 19.8081 21.215 19.8081C21.3989 19.8081 21.5801 19.7632 21.7428 19.6772C21.9054 19.5913 22.0446 19.467 22.1483 19.3151C22.545 18.7451 22.545 17.8067 22.1483 17.2367C22.0558 17.0958 21.9307 16.9792 21.7837 16.8968C21.6366 16.8144 21.4718 16.7687 21.3033 16.7634C20.5217 16.7101 19.9767 17.3484 19.9833 18.4067ZM27.4117 18.4517C27.355 16.5234 28.5533 15.0817 30.2567 15.0301C32.065 14.9701 33.385 16.2534 33.4417 18.1301C33.4983 20.0301 32.3983 21.3717 30.7033 21.5517C28.8517 21.7467 27.3833 20.3284 27.4117 18.4517ZM29.1917 18.2717C29.1783 18.6467 29.285 19.0151 29.4967 19.3217C29.5846 19.4496 29.6981 19.5577 29.8301 19.6392C29.9621 19.7208 30.1097 19.7739 30.2634 19.7952C30.417 19.8165 30.5735 19.8056 30.7227 19.7631C30.8719 19.7206 31.0106 19.6475 31.13 19.5484C31.2055 19.4858 31.2743 19.4154 31.335 19.3384C31.7467 18.7667 31.7467 17.8067 31.3417 17.2367C31.2481 17.0972 31.123 16.9816 30.9765 16.8994C30.83 16.8171 30.6662 16.7706 30.4983 16.7634C29.7317 16.7184 29.1917 17.3334 29.1917 18.2717ZM26.7867 16.9584L26.7883 18.1217C26.79 18.8967 26.7917 19.6717 26.7883 20.4484C26.7933 20.9817 26.3967 21.4251 25.8933 21.4401C25.8046 21.4414 25.7161 21.4313 25.63 21.4101C25.2767 21.3117 25.0067 20.9151 25.0067 20.4417V14.4751L25.005 14.1234C25.0033 13.8901 25.0017 13.6567 25.005 13.4234C25.0133 12.8451 25.3617 12.4701 25.8867 12.4701C26.425 12.4617 26.7867 12.8367 26.7867 13.4367C26.7917 14.2201 26.79 15.0034 26.7883 15.7867V16.9584H26.7867Z" fill="white"/>
</svg>
