<svg width="24" height="24" viewBox="0 0 24 24" fill="none" xmlns="http://www.w3.org/2000/svg">
<path d="M24 20C24 20.5525 23.5525 21 23 21H1C0.4475 21 0 20.5525 0 20V4C0 3.4475 0.4475 3 1 3H23C23.5525 3 24 3.4475 24 4V20Z" fill="#D82827"/>
<path d="M7.698 6.6495H5.885L5.124 5L4.3625 6.6495H2.5505L3.8745 8.0195L3.3855 10.007L5.124 9.019L6.863 10.007L6.3735 8.0195L7.698 6.6495Z" fill="#FFFD38"/>
<path d="M8.5 6C8.77614 6 9 5.77614 9 5.5C9 5.22386 8.77614 5 8.5 5C8.22386 5 8 5.22386 8 5.5C8 5.77614 8.22386 6 8.5 6Z" fill="#FFFD38"/>
<path d="M8.5 10C8.77614 10 9 9.77614 9 9.5C9 9.22386 8.77614 9 8.5 9C8.22386 9 8 9.22386 8 9.5C8 9.77614 8.22386 10 8.5 10Z" fill="#FFFD38"/>
<path d="M10.5 7.00051C10.7761 7.00051 11 6.77643 11 6.50001C11 6.22359 10.7761 5.99951 10.5 5.99951C10.2239 5.99951 10 6.22359 10 6.50001C10 6.77643 10.2239 7.00051 10.5 7.00051Z" fill="#FFFD38"/>
<path d="M10.4995 9C10.7762 9 11.0005 8.77614 11.0005 8.5C11.0005 8.22386 10.7762 8 10.4995 8C10.2228 8 9.9985 8.22386 9.9985 8.5C9.9985 8.77614 10.2228 9 10.4995 9Z" fill="#FFFD38"/>
</svg>
