<svg width="24" height="24" viewBox="0 0 24 24" fill="none" xmlns="http://www.w3.org/2000/svg">
<path fill-rule="evenodd" clip-rule="evenodd" d="M16.3502 8.37998L20.3502 5.51998C21.1402 4.94998 22.2002 5.73998 21.8602 6.66998L17.7002 18.32C17.5602 18.71 17.1802 18.98 16.7602 18.98H7.23022C6.81022 18.98 6.43022 18.72 6.29022 18.32L2.13022 6.66998C1.80022 5.73998 2.86022 4.94998 3.66022 5.50998L7.66022 8.36998C8.19022 8.75998 8.94022 8.52998 9.17022 7.90998L11.0702 2.87998C11.3902 2.00998 12.6202 2.00998 12.9402 2.87998L14.8302 7.91998C15.0602 8.52998 15.8202 8.75998 16.3502 8.37998ZM9.50022 14.75H14.5002C14.9102 14.75 15.2502 14.41 15.2502 14C15.2502 13.59 14.9102 13.25 14.5002 13.25H9.50022C9.09022 13.25 8.75022 13.59 8.75022 14C8.75022 14.41 9.09022 14.75 9.50022 14.75ZM7.00024 22H17.0002C17.4102 22 17.7502 21.66 17.7502 21.25C17.7502 20.84 17.4102 20.5 17.0002 20.5H7.00024C6.59024 20.5 6.25024 20.84 6.25024 21.25C6.25024 21.66 6.59024 22 7.00024 22Z" fill="url(#paint0_linear_1028_1164)"/>
<defs>
<linearGradient id="paint0_linear_1028_1164" x1="6.5" y1="21.9999" x2="22" y2="5.49994" gradientUnits="userSpaceOnUse">
<stop stop-color="#E33838"/>
<stop offset="1" stop-color="#FFCC47"/>
</linearGradient>
</defs>
</svg>
