<svg width="24" height="24" viewBox="0 0 24 24" fill="none" xmlns="http://www.w3.org/2000/svg">
<path fill-rule="evenodd" clip-rule="evenodd" d="M21 16.717V5.177C21 3.81 19.96 2.75 18.733 2.75H8.227C7.597 3.195 7.017 3.709 6.512 4.313C5.443 5.592 4.702 7.06 4.452 8.767C4.009 11.78 4.899 14.338 6.912 16.473C7.27 16.856 7.316 17.153 7.032 17.666C6.686 18.283 6.162 18.702 5.605 19.086C5.565 19.109 5.525 19.137 5.486 19.166L5.426 19.206C5.337 19.288 5.392 19.328 5.469 19.364C5.486 19.404 5.507 19.441 5.533 19.477C5.822 19.748 6.103 20.031 6.383 20.313C6.576 20.508 6.771 20.703 6.967 20.895C7.087 21.012 7.205 21.131 7.323 21.251H7.329C7.209 21.129 7.088 21.009 6.966 20.891C6.77 20.699 6.576 20.503 6.382 20.308C6.102 20.025 5.821 19.743 5.532 19.472C5.50652 19.4368 5.48505 19.3989 5.468 19.359C6.553 19.584 7.613 19.431 8.656 19.093C9.01 18.981 9.363 18.868 9.721 18.773C9.963 18.706 10.219 18.72 10.453 18.81C13.152 19.792 15.817 19.701 18.439 18.485C19.3849 18.042 20.2504 17.4445 21 16.717ZM4.767 1.75C2.936 1.75 1.5 3.311 1.5 5.177V18.824C1.5 20.69 2.936 22.251 4.767 22.251H18.733C20.564 22.251 22 20.69 22 18.824V5.177C22 3.311 20.564 1.75 18.733 1.75H4.768H4.767ZM9.199 11.77H8.559C8.627 11.672 8.669 11.613 8.716 11.555C9.274 10.811 9.831 10.064 10.389 9.312C10.551 9.091 10.713 8.87 10.815 8.614C10.93 8.316 10.806 8.033 10.517 7.929C10.387 7.89221 10.2521 7.87536 10.117 7.879C9.35767 7.87449 8.59833 7.87449 7.839 7.879C7.733 7.879 7.626 7.893 7.524 7.92C7.44245 7.94291 7.36875 7.98774 7.31091 8.04963C7.25308 8.11152 7.21333 8.18809 7.196 8.271C7.16752 8.3909 7.18675 8.51717 7.24963 8.62315C7.31251 8.72914 7.41412 8.80653 7.533 8.839C7.635 8.861 7.741 8.875 7.848 8.875C8.078 8.877 8.308 8.877 8.539 8.877C8.78366 8.87573 9.02833 8.87573 9.273 8.877C9.313 8.873 9.353 8.867 9.384 8.924C9.346 8.974 9.308 9.028 9.269 9.082C8.609 9.965 7.949 10.852 7.294 11.735C7.132 11.955 7.047 12.198 7.166 12.469C7.286 12.739 7.528 12.793 7.776 12.807C7.918 12.817 8.059 12.814 8.2 12.812L8.371 12.811H8.888C9.404 12.812 9.918 12.813 10.436 12.806C10.802 12.802 10.998 12.563 10.959 12.208C10.925 11.924 10.742 11.775 10.406 11.771C10.009 11.768 9.61 11.769 9.199 11.77ZM13.497 9.4C13.599 9.26 13.705 9.13 13.88 9.094C13.9582 9.07502 14.0397 9.0741 14.1183 9.09131C14.197 9.10852 14.2706 9.14341 14.3338 9.19333C14.3969 9.24326 14.4478 9.30691 14.4827 9.37945C14.5176 9.45199 14.5354 9.53152 14.535 9.612C14.548 10.512 14.544 11.414 14.535 12.314C14.5372 12.4253 14.5043 12.5345 14.4409 12.626C14.3775 12.7176 14.2869 12.7868 14.182 12.824C14.0774 12.8662 13.9615 12.8718 13.8533 12.8398C13.7451 12.8079 13.6509 12.7403 13.586 12.648C13.514 12.553 13.484 12.535 13.382 12.621C12.995 12.954 12.556 13.012 12.084 12.851C11.326 12.589 11.015 11.963 10.93 11.201C10.84 10.378 11.1 9.675 11.798 9.243C12.378 8.878 12.965 8.91 13.497 9.4ZM11.99 11.044C11.998 11.242 12.058 11.432 12.169 11.589C12.2312 11.6802 12.3147 11.7548 12.4123 11.8063C12.5099 11.8578 12.6186 11.8848 12.729 11.8848C12.8394 11.8848 12.9481 11.8578 13.0457 11.8063C13.1433 11.7548 13.2268 11.6802 13.289 11.589C13.527 11.247 13.527 10.684 13.289 10.342C13.2335 10.2574 13.1585 10.1875 13.0702 10.1381C12.982 10.0886 12.8831 10.0612 12.782 10.058C12.313 10.026 11.986 10.409 11.99 11.044ZM16.447 11.071C16.413 9.914 17.132 9.049 18.154 9.018C19.239 8.982 20.031 9.752 20.065 10.878C20.099 12.018 19.439 12.823 18.422 12.931C17.311 13.048 16.43 12.197 16.447 11.071ZM17.515 10.963C17.507 11.188 17.571 11.409 17.698 11.593C17.7507 11.6697 17.8189 11.7346 17.8981 11.7835C17.9773 11.8324 18.0658 11.8643 18.158 11.8771C18.2502 11.8899 18.3441 11.8833 18.4336 11.8578C18.5231 11.8323 18.6064 11.7884 18.678 11.729C18.7233 11.6914 18.7646 11.6492 18.801 11.603C19.048 11.26 19.048 10.684 18.805 10.342C18.7489 10.2583 18.6738 10.1889 18.5859 10.1396C18.498 10.0902 18.3997 10.0623 18.299 10.058C17.839 10.031 17.515 10.4 17.515 10.963ZM16.072 10.175L16.073 10.873C16.074 11.338 16.075 11.803 16.073 12.269C16.076 12.589 15.838 12.855 15.536 12.864C15.4828 12.8648 15.4297 12.8587 15.378 12.846C15.166 12.787 15.004 12.549 15.004 12.265V8.685L15.003 8.474C15.002 8.334 15.001 8.194 15.003 8.054C15.008 7.707 15.217 7.482 15.532 7.482C15.855 7.477 16.072 7.702 16.072 8.062C16.075 8.532 16.074 9.002 16.073 9.472V10.175H16.072Z" fill="#0068FF"/>
</svg>
