<svg width="24" height="24" viewBox="0 0 24 24" fill="none" xmlns="http://www.w3.org/2000/svg">
<g clip-path="url(#clip0_1003_310)">
<path d="M23 3H1C0.734784 3 0.48043 3.10536 0.292893 3.29289C0.105357 3.48043 0 3.73478 0 4L0 20C0 20.2652 0.105357 20.5196 0.292893 20.7071C0.48043 20.8946 0.734784 21 1 21H23C23.2652 21 23.5196 20.8946 23.7071 20.7071C23.8946 20.5196 24 20.2652 24 20V4C24 3.73478 23.8946 3.48043 23.7071 3.29289C23.5196 3.10536 23.2652 3 23 3Z" fill="#002781"/>
<path d="M24 4C24 3.73478 23.8946 3.48043 23.7071 3.29289C23.5196 3.10536 23.2652 3 23 3H20.4195L14 7.938V3H10V7.938L3.5805 3H1C0.734784 3 0.48043 3.10536 0.292893 3.29289C0.105357 3.48043 0 3.73478 0 4L0 5.293L6.1195 10H0V14H6.1195L0 18.7075V20C0 20.2652 0.105357 20.5196 0.292893 20.7071C0.48043 20.8946 0.734784 21 1 21H3.5805L10 16.062V21H14V16.062L20.4195 21H23C23.2652 21 23.5196 20.8946 23.7071 20.7071C23.8946 20.5196 24 20.2652 24 20V18.7075L17.8805 14H24V10H17.8805L24 5.293V4Z" fill="#E6E6E6"/>
<path d="M24 11H13V3H11V11H0V13H11V21H13V13H24V11Z" fill="#D10D24"/>
<path d="M10 13.8613L0.791 20.9773C0.859712 20.992 0.929747 20.9995 1 20.9998H2.193L10 14.9673V13.8613Z" fill="#D10D24"/>
<path d="M14 10.1385L23.209 3.0225C23.1403 3.00789 23.0703 3.00035 23 3H21.807L14 9.033V10.1385Z" fill="#D10D24"/>
<path d="M9.003 9.99976L0.3075 3.28076C0.210319 3.37361 0.132966 3.48519 0.0801145 3.60877C0.027263 3.73235 9.42173e-06 3.86536 0 3.99976L0 4.14976L7.572 9.99976H9.003Z" fill="#D10D24"/>
<path d="M14.997 14L23.6925 20.719C23.7897 20.6262 23.867 20.5146 23.9199 20.391C23.9727 20.2674 24 20.1344 24 20V19.85L16.428 14H14.997Z" fill="#D10D24"/>
</g>
<defs>
<clipPath id="clip0_1003_310">
<rect width="24" height="24" fill="white"/>
</clipPath>
</defs>
</svg>
