<svg width="16" height="16" viewBox="0 0 16 16" fill="none" xmlns="http://www.w3.org/2000/svg">
<path d="M14.6663 10.7933C14.6663 13.2199 13.2197 14.6666 10.793 14.6666H9.99967C9.63301 14.6666 9.33301 14.3666 9.33301 13.9999V10.1533C9.33301 9.97325 9.47967 9.81992 9.65967 9.81992L10.833 9.79992C10.9263 9.79325 11.0063 9.72659 11.0263 9.63325L11.2597 8.35992C11.2642 8.33106 11.2624 8.30156 11.2545 8.27345C11.2465 8.24535 11.2325 8.21931 11.2135 8.19713C11.1945 8.17494 11.1709 8.15715 11.1443 8.14497C11.1178 8.13279 11.0889 8.12652 11.0597 8.12659L9.63968 8.14659C9.45301 8.14659 9.30634 7.99992 9.29967 7.81992L9.27301 6.18659C9.27301 6.07992 9.35967 5.98659 9.47301 5.98659L11.073 5.95992C11.1863 5.95992 11.273 5.87325 11.273 5.75992L11.2463 4.15992C11.2463 4.04659 11.1597 3.95992 11.0463 3.95992L9.24634 3.98659C8.98358 3.99058 8.72419 4.04638 8.48304 4.1508C8.24189 4.25522 8.02371 4.4062 7.84101 4.59509C7.65831 4.78398 7.51469 5.00707 7.41836 5.25157C7.32204 5.49607 7.27491 5.75717 7.27967 6.01992L7.31301 7.85325C7.31967 8.03992 7.17301 8.18659 6.98634 8.19325L6.18634 8.20659C6.07301 8.20659 5.98634 8.29325 5.98634 8.40659L6.00634 9.67325C6.00634 9.78659 6.09301 9.87325 6.20634 9.87325L7.00634 9.85992C7.19301 9.85992 7.33967 10.0066 7.34634 10.1866L7.40634 13.9866C7.41301 14.3599 7.11301 14.6666 6.73967 14.6666H5.20634C2.77967 14.6666 1.33301 13.2199 1.33301 10.7866V5.20659C1.33301 2.77992 2.77967 1.33325 5.20634 1.33325H10.793C13.2197 1.33325 14.6663 2.77992 14.6663 5.20659V10.7933Z" fill="white"/>
</svg>
