<svg width="89" height="40" viewBox="0 0 89 40" fill="none" xmlns="http://www.w3.org/2000/svg">
<path fill-rule="evenodd" clip-rule="evenodd" d="M73.7749 18.8755C74.6347 19.9215 75.8387 20.4444 77.3869 20.4444C78.7414 20.4444 79.7968 20.1143 80.5587 19.4088H88.8211C88.4304 20.4869 87.8796 21.5 87.1873 22.4141C86.2184 23.6904 84.9417 24.7001 83.4765 25.3489C81.9894 26.0148 80.11 26.3393 77.8328 26.3393C75.0674 26.3374 72.8099 25.9367 71.0603 25.1372C69.2995 24.3283 67.7832 22.9108 66.5115 20.8847C65.2397 18.8586 64.6039 16.2653 64.6039 13.1048C64.602 8.88325 65.7223 5.64374 67.9647 3.38625C70.2072 1.12875 73.3771 4.08375e-06 77.4744 4.08375e-06C80.6801 -0.00187716 83.2028 0.646212 85.0427 1.94427C86.7527 3.15203 88.0517 4.96085 88.9397 7.37073H81.0977C80.7317 6.9622 80.2935 6.62453 79.8053 6.37461C79.1415 6.04355 78.4079 5.87707 77.6663 5.88924C75.8754 5.88924 74.5096 6.606 73.5689 8.03951C72.8494 9.11182 72.4882 10.7795 72.4882 13.0624C72.4882 15.8928 72.9284 17.8258 73.7749 18.8755ZM0 30.9361L7.82222 30.9333L16.6857 14.1037L26.1305 30.9361H34.091L17.1965 0.634921L0 30.9361ZM35.0787 0.934055L25.2557 11.6007L28.3767 17.157L33.2755 12.103L43.3693 31.2353H50.757L50.7541 31.2296H88.649V27.0025H48.5672L35.0787 0.934055ZM62.2928 7.34532V1.65079H38.0021L41.0215 7.34532H62.2928ZM62.0049 13.8272V19.5273H47.7037L44.6815 13.8272H62.0049Z" fill="#ED1C24"/>
<path d="M31.0502 39.017V34.1659L28.5089 37.734L25.9612 34.1659V39.017H26.721V36.5084L28.5089 39.0362L30.2967 36.5084V39.017H31.0502Z" fill="#067948"/>
<path d="M35.1229 34.9127V34.2425H32.1219V39.017H35.1229V38.3404H32.8817V36.8851H34.842V36.2276H32.8817V34.9127H35.1229Z" fill="#067948"/>
<path d="M38.1155 34.1786C36.7427 34.1786 35.7338 35.0786 35.7338 36.6297C35.7338 38.1744 36.7555 39.0808 38.1219 39.0808C39.2584 39.0808 40.1524 38.4234 40.3375 37.3383L39.5394 37.268C39.4053 38.0021 38.8434 38.4042 38.0963 38.4042C37.2024 38.4042 36.5064 37.7851 36.5064 36.6297C36.5064 35.5255 37.1513 34.8552 38.09 34.8552C38.8434 34.8552 39.4117 35.2765 39.5394 36.0361L40.3312 35.9659C40.1715 34.8552 39.2521 34.1786 38.1155 34.1786Z" fill="#067948"/>
<path d="M44.5058 39.1L46.8364 34.2425H45.9872L44.5058 37.3702L43.0308 34.2425H42.1816L44.5058 39.1Z" fill="#067948"/>
<path d="M48.2211 39.017V34.2425H47.4612V39.017H48.2211Z" fill="#067948"/>
<path d="M52.2893 34.9127V34.2425H49.2882V39.017H52.2893V38.3404H50.0481V36.8851H52.0083V36.2276H50.0481V34.9127H52.2893Z" fill="#067948"/>
<path d="M56.8584 34.9127V34.2425H52.7017V34.9127H54.4001V39.017H55.16V34.9127H56.8584Z" fill="#067948"/>
<path d="M60.4247 37.2106L57.5067 34.1659V39.017H58.2665V36.0552L61.1845 39.0936V34.2425H60.4247V37.2106Z" fill="#067948"/>
<path d="M66.5298 39.017L64.1864 34.1531L61.8431 39.017H62.6732L63.1073 38.1234H65.2655L65.6997 39.017H66.5298ZM63.4266 37.4468L64.1864 35.8829L64.9463 37.4468H63.4266Z" fill="#067948"/>
<path d="M72.2732 39.017V34.1659L69.7319 37.734L67.1842 34.1659V39.017H67.944V36.5084L69.7319 39.0362L71.5197 36.5084V39.017H72.2732Z" fill="#067948"/>
<path d="M73.53 38.1617C73.281 38.1617 73.0767 38.3659 73.0767 38.6276C73.0767 38.8766 73.281 39.0808 73.53 39.0808C73.7854 39.0808 73.9962 38.8766 73.9962 38.6276C73.9962 38.3659 73.7854 38.1617 73.53 38.1617Z" fill="#067948"/>
<path d="M74.9639 38.1681C74.7085 38.1681 74.5233 38.3723 74.5233 38.6276C74.5233 38.8702 74.7149 39.0617 74.9575 39.0745C74.9128 39.3298 74.7851 39.534 74.5616 39.6936V40C75.1427 39.6872 75.3917 39.2276 75.3917 38.6787C75.3917 38.3787 75.2385 38.1681 74.9639 38.1681Z" fill="#067948"/>
<path d="M78.9591 34.2425H78.1993V37.4404C78.1993 38.0787 77.9056 38.4042 77.3948 38.4042C76.8967 38.4042 76.5902 38.0468 76.5583 37.4212L75.7985 37.5425C75.8496 38.5064 76.4498 39.0808 77.3884 39.0808C78.3653 39.0808 78.9591 38.4744 78.9591 37.4212V34.2425Z" fill="#067948"/>
<path d="M81.5435 34.1786C80.4325 34.1786 79.8898 34.8233 79.8898 35.5765C79.8898 36.4893 80.5921 36.7127 81.4478 36.9233C82.1757 37.0957 82.5907 37.2297 82.5907 37.7085C82.5907 38.2064 82.1884 38.4234 81.6393 38.4234C81.0391 38.4234 80.5858 38.0978 80.5538 37.5872L79.7812 37.6319C79.8131 38.5638 80.5921 39.0808 81.6393 39.0808C82.5843 39.0808 83.3633 38.6532 83.3633 37.6702C83.3633 36.8276 82.7312 36.5531 81.7287 36.3106C81.0391 36.151 80.6688 36.0361 80.6688 35.5574C80.6688 35.1489 80.9752 34.8361 81.5563 34.8361C82.0927 34.8361 82.4438 35.1297 82.4694 35.6084L83.242 35.5638C83.2101 34.6893 82.5205 34.1786 81.5435 34.1786Z" fill="#067948"/>
<path d="M86.3846 34.1786C85.0118 34.1786 84.003 35.0786 84.003 36.6297C84.003 38.1744 85.0246 39.0808 86.391 39.0808C87.5276 39.0808 88.4215 38.4234 88.6067 37.3383L87.8085 37.268C87.6744 38.0021 87.1125 38.4042 86.3655 38.4042C85.4716 38.4042 84.7756 37.7851 84.7756 36.6297C84.7756 35.5255 85.4205 34.8552 86.3591 34.8552C87.1125 34.8552 87.6808 35.2765 87.8085 36.0361L88.6003 35.9659C88.4407 34.8552 87.5212 34.1786 86.3846 34.1786Z" fill="#067948"/>
</svg>
