<svg width="24" height="24" viewBox="0 0 24 24" fill="none" xmlns="http://www.w3.org/2000/svg">
<path d="M21 12.0002C21 12.1991 20.921 12.3899 20.7803 12.5305C20.6397 12.6712 20.4489 12.7502 20.25 12.7502H5.55938L11.0344 18.2158C11.1752 18.358 11.2542 18.5501 11.2542 18.7502C11.2542 18.9504 11.1752 19.1424 11.0344 19.2846C10.891 19.4232 10.6994 19.5007 10.5 19.5007C10.3006 19.5007 10.109 19.4232 9.96563 19.2846L3.21563 12.5346C3.0748 12.3924 2.99579 12.2004 2.99579 12.0002C2.99579 11.8001 3.0748 11.608 3.21563 11.4658L9.96563 4.71584C10.1114 4.59624 10.2964 4.53512 10.4846 4.54437C10.6729 4.55362 10.851 4.63257 10.9843 4.76587C11.1176 4.89917 11.1966 5.07729 11.2059 5.26558C11.2151 5.45387 11.154 5.63887 11.0344 5.78459L5.55938 11.2502H20.25C20.4489 11.2502 20.6397 11.3292 20.7803 11.4699C20.921 11.6105 21 11.8013 21 12.0002Z" fill="#0C1323"/>
</svg>
