<svg width="24" height="24" viewBox="0 0 24 24" fill="none" xmlns="http://www.w3.org/2000/svg">
<path d="M20.7844 12.5346L14.0344 19.2846C13.891 19.4232 13.6994 19.5007 13.5 19.5007C13.3006 19.5007 13.109 19.4232 12.9656 19.2846C12.8248 19.1424 12.7458 18.9504 12.7458 18.7502C12.7458 18.5501 12.8248 18.358 12.9656 18.2158L18.4406 12.7502H3.75C3.55109 12.7502 3.36032 12.6712 3.21967 12.5305C3.07902 12.3899 3 12.1991 3 12.0002C3 11.8013 3.07902 11.6105 3.21967 11.4699C3.36032 11.3292 3.55109 11.2502 3.75 11.2502H18.4406L12.9656 5.78459C12.846 5.63887 12.7849 5.45387 12.7942 5.26558C12.8034 5.07729 12.8824 4.89917 13.0157 4.76587C13.149 4.63257 13.3271 4.55362 13.5154 4.54437C13.7037 4.53512 13.8887 4.59624 14.0344 4.71584L20.7844 11.4658C20.9252 11.608 21.0042 11.8001 21.0042 12.0002C21.0042 12.2004 20.9252 12.3924 20.7844 12.5346Z" fill="#fff"/>
</svg>
