<svg width="24" height="24" viewBox="0 0 24 24" fill="none" xmlns="http://www.w3.org/2000/svg">
<path d="M22.5 19.5H21.75V9.75C21.75 9.35218 21.592 8.97064 21.3107 8.68934C21.0294 8.40804 20.6478 8.25 20.25 8.25H14.25V3.75C14.25 3.35218 14.092 2.97064 13.8107 2.68934C13.5294 2.40804 13.1478 2.25 12.75 2.25H3.75C3.35218 2.25 2.97064 2.40804 2.68934 2.68934C2.40804 2.97064 2.25 3.35218 2.25 3.75V19.5H1.5C1.30109 19.5 1.11032 19.579 0.96967 19.7197C0.829018 19.8603 0.75 20.0511 0.75 20.25C0.75 20.4489 0.829018 20.6397 0.96967 20.7803C1.11032 20.921 1.30109 21 1.5 21H22.5C22.6989 21 22.8897 20.921 23.0303 20.7803C23.171 20.6397 23.25 20.4489 23.25 20.25C23.25 20.0511 23.171 19.8603 23.0303 19.7197C22.8897 19.579 22.6989 19.5 22.5 19.5ZM20.25 9.75V19.5H14.25V9.75H20.25ZM3.75 3.75H12.75V19.5H3.75V3.75ZM5.25 6.75C5.25 6.55109 5.32902 6.36032 5.46967 6.21967C5.61032 6.07902 5.80109 6 6 6H9C9.19891 6 9.38968 6.07902 9.53033 6.21967C9.67098 6.36032 9.75 6.55109 9.75 6.75C9.75 6.94891 9.67098 7.13968 9.53033 7.28033C9.38968 7.42098 9.19891 7.5 9 7.5H6C5.80109 7.5 5.61032 7.42098 5.46967 7.28033C5.32902 7.13968 5.25 6.94891 5.25 6.75ZM11.25 12.75C11.25 12.9489 11.171 13.1397 11.0303 13.2803C10.8897 13.421 10.6989 13.5 10.5 13.5H7.5C7.30109 13.5 7.11032 13.421 6.96967 13.2803C6.82902 13.1397 6.75 12.9489 6.75 12.75C6.75 12.5511 6.82902 12.3603 6.96967 12.2197C7.11032 12.079 7.30109 12 7.5 12H10.5C10.6989 12 10.8897 12.079 11.0303 12.2197C11.171 12.3603 11.25 12.5511 11.25 12.75ZM9.75 16.5C9.75 16.6989 9.67098 16.8897 9.53033 17.0303C9.38968 17.171 9.19891 17.25 9 17.25H6C5.80109 17.25 5.61032 17.171 5.46967 17.0303C5.32902 16.8897 5.25 16.6989 5.25 16.5C5.25 16.3011 5.32902 16.1103 5.46967 15.9697C5.61032 15.829 5.80109 15.75 6 15.75H9C9.19891 15.75 9.38968 15.829 9.53033 15.9697C9.67098 16.1103 9.75 16.3011 9.75 16.5ZM18.75 16.5C18.75 16.6989 18.671 16.8897 18.5303 17.0303C18.3897 17.171 18.1989 17.25 18 17.25H16.5C16.3011 17.25 16.1103 17.171 15.9697 17.0303C15.829 16.8897 15.75 16.6989 15.75 16.5C15.75 16.3011 15.829 16.1103 15.9697 15.9697C16.1103 15.829 16.3011 15.75 16.5 15.75H18C18.1989 15.75 18.3897 15.829 18.5303 15.9697C18.671 16.1103 18.75 16.3011 18.75 16.5ZM15.75 12.75C15.75 12.5511 15.829 12.3603 15.9697 12.2197C16.1103 12.079 16.3011 12 16.5 12H18C18.1989 12 18.3897 12.079 18.5303 12.2197C18.671 12.3603 18.75 12.5511 18.75 12.75C18.75 12.9489 18.671 13.1397 18.5303 13.2803C18.3897 13.421 18.1989 13.5 18 13.5H16.5C16.3011 13.5 16.1103 13.421 15.9697 13.2803C15.829 13.1397 15.75 12.9489 15.75 12.75Z" fill="#0C1323"/>
</svg>
