<svg width="24" height="24" viewBox="0 0 24 24" fill="none" xmlns="http://www.w3.org/2000/svg">
<path d="M9.00001 20.2502C8.80122 20.2475 8.61062 20.1706 8.46563 20.0346C8.3248 19.8924 8.24579 19.7004 8.24579 19.5002C8.24579 19.3001 8.3248 19.108 8.46563 18.9658L15.4406 12.0002L8.46563 5.03459C8.34604 4.88887 8.28492 4.70387 8.29416 4.51558C8.30341 4.32729 8.38236 4.14917 8.51567 4.01587C8.64897 3.88257 8.82709 3.80362 9.01537 3.79437C9.20366 3.78512 9.38866 3.84624 9.53438 3.96584L17.0344 11.4658C17.1752 11.608 17.2542 11.8001 17.2542 12.0002C17.2542 12.2004 17.1752 12.3924 17.0344 12.5346L9.53438 20.0346C9.38939 20.1706 9.19879 20.2475 9.00001 20.2502Z" fill="#0C1323"/>
</svg>
