<svg width="24" height="24" viewBox="0 0 24 24" fill="none" xmlns="http://www.w3.org/2000/svg">
<path d="M19.2844 18.2158C19.4252 18.358 19.5042 18.5501 19.5042 18.7502C19.5042 18.9504 19.4252 19.1424 19.2844 19.2846C19.141 19.4232 18.9494 19.5007 18.75 19.5007C18.5506 19.5007 18.359 19.4232 18.2156 19.2846L12 13.0596L5.78438 19.2846C5.64103 19.4232 5.44942 19.5007 5.25001 19.5007C5.0506 19.5007 4.85899 19.4232 4.71563 19.2846C4.5748 19.1424 4.49579 18.9504 4.49579 18.7502C4.49579 18.5501 4.5748 18.358 4.71563 18.2158L10.9406 12.0002L4.71563 5.78459C4.59604 5.63887 4.53492 5.45387 4.54416 5.26558C4.55341 5.07729 4.63236 4.89917 4.76567 4.76587C4.89897 4.63257 5.07708 4.55362 5.26537 4.54437C5.45366 4.53512 5.63866 4.59624 5.78438 4.71584L12 10.9408L18.2156 4.71584C18.3614 4.59624 18.5463 4.53512 18.7346 4.54437C18.9229 4.55362 19.101 4.63257 19.2343 4.76587C19.3676 4.89917 19.4466 5.07729 19.4558 5.26558C19.4651 5.45387 19.404 5.63887 19.2844 5.78459L13.0594 12.0002L19.2844 18.2158Z" fill="#0C1323"/>
</svg>
