<svg width="16" height="16" viewBox="0 0 16 16" fill="none" xmlns="http://www.w3.org/2000/svg">
<path d="M11.975 10.525C12.0685 10.6187 12.121 10.7457 12.121 10.8781C12.121 11.0105 12.0685 11.1375 11.975 11.2312L9.85625 13.3562C9.76068 13.4487 9.63294 13.5003 9.5 13.5003C9.36706 13.5003 9.23932 13.4487 9.14375 13.3562L7.025 11.2312C6.93882 11.1361 6.89252 11.0115 6.89568 10.8832C6.89883 10.7549 6.95121 10.6327 7.04197 10.542C7.13273 10.4512 7.25491 10.3988 7.38322 10.3957C7.51153 10.3925 7.63614 10.4388 7.73125 10.525L9 11.7937V8C9 7.86739 9.05268 7.74021 9.14645 7.64645C9.24021 7.55268 9.36739 7.5 9.5 7.5C9.63261 7.5 9.75979 7.55268 9.85355 7.64645C9.94732 7.74021 10 7.86739 10 8V11.7937L11.2688 10.525C11.3625 10.4315 11.4895 10.379 11.6219 10.379C11.7543 10.379 11.8813 10.4315 11.975 10.525ZM10 2.5C8.97833 2.50043 7.97697 2.78542 7.10818 3.32303C6.23939 3.86065 5.53752 4.62962 5.08125 5.54375C4.88898 5.51364 4.69461 5.49901 4.5 5.5C3.43913 5.5 2.42172 5.92143 1.67157 6.67157C0.921427 7.42172 0.5 8.43913 0.5 9.5C0.5 10.5609 0.921427 11.5783 1.67157 12.3284C2.42172 13.0786 3.43913 13.5 4.5 13.5H6C6.13261 13.5 6.25979 13.4473 6.35355 13.3536C6.44732 13.2598 6.5 13.1326 6.5 13C6.5 12.8674 6.44732 12.7402 6.35355 12.6464C6.25979 12.5527 6.13261 12.5 6 12.5H4.5C3.70435 12.5 2.94129 12.1839 2.37868 11.6213C1.81607 11.0587 1.5 10.2956 1.5 9.5C1.5 8.70435 1.81607 7.94129 2.37868 7.37868C2.94129 6.81607 3.70435 6.5 4.5 6.5H4.70625C4.56682 6.98771 4.49738 7.49276 4.5 8C4.5 8.13261 4.55268 8.25979 4.64645 8.35355C4.74021 8.44732 4.86739 8.5 5 8.5C5.13261 8.5 5.25979 8.44732 5.35355 8.35355C5.44732 8.25979 5.5 8.13261 5.5 8C5.5 7.28697 5.66944 6.58414 5.99436 5.94944C6.31927 5.31473 6.79036 4.76633 7.3688 4.34941C7.94725 3.93249 8.61648 3.659 9.32136 3.55147C10.0262 3.44393 10.7466 3.50544 11.423 3.73093C12.0995 3.95641 12.7126 4.3394 13.212 4.84836C13.7114 5.35731 14.0827 5.97765 14.2953 6.65825C14.5079 7.33885 14.5557 8.06023 14.4349 8.76294C14.314 9.46565 14.0278 10.1296 13.6 10.7C13.522 10.8067 13.4889 10.9396 13.5075 11.0704C13.5262 11.2011 13.5953 11.3194 13.7 11.4C13.7859 11.4662 13.8916 11.5014 14 11.5C14.0776 11.5 14.1542 11.4819 14.2236 11.4472C14.293 11.4125 14.3534 11.3621 14.4 11.3C15.0128 10.4829 15.386 9.51122 15.4778 8.49393C15.5695 7.47664 15.3761 6.45391 14.9193 5.54033C14.4626 4.62674 13.7604 3.85841 12.8915 3.32142C12.0227 2.78443 11.0214 2.5 10 2.5Z" fill="white"/>
</svg>
