<svg width="24" height="24" viewBox="0 0 24 24" fill="none" xmlns="http://www.w3.org/2000/svg">
<path d="M12.2507 17.2502C12.0519 17.2475 11.8613 17.1706 11.7163 17.0346L4.21633 9.53459C4.09673 9.38887 4.03561 9.20387 4.04486 9.01558C4.05411 8.82729 4.13306 8.64917 4.26636 8.51587C4.39966 8.38257 4.57778 8.30362 4.76607 8.29437C4.95436 8.28512 5.13936 8.34624 5.28508 8.46584L12.2507 15.4408L19.2163 8.46584C19.3621 8.34624 19.547 8.28512 19.7353 8.29437C19.9236 8.30362 20.1017 8.38257 20.235 8.51587C20.3683 8.64917 20.4473 8.82729 20.4565 9.01558C20.4658 9.20387 20.4047 9.38887 20.2851 9.53459L12.7851 17.0346C12.6401 17.1706 12.4495 17.2475 12.2507 17.2502Z" fill="#0C1323"/>
</svg>
