<svg width="24" height="24" viewBox="0 0 24 24" fill="none" xmlns="http://www.w3.org/2000/svg">
<path d="M17.9625 15.7875C18.1028 15.9281 18.1815 16.1186 18.1815 16.3172C18.1815 16.5158 18.1028 16.7063 17.9625 16.8469L14.7844 20.0344C14.641 20.173 14.4494 20.2505 14.25 20.2505C14.0506 20.2505 13.859 20.173 13.7156 20.0344L10.5375 16.8469C10.4082 16.7042 10.3388 16.5173 10.3435 16.3248C10.3483 16.1324 10.4268 15.9491 10.563 15.813C10.6991 15.6768 10.8824 15.5983 11.0748 15.5935C11.2673 15.5888 11.4542 15.6582 11.5969 15.7875L13.5 17.6906V12C13.5 11.8011 13.579 11.6103 13.7197 11.4697C13.8603 11.329 14.0511 11.25 14.25 11.25C14.4489 11.25 14.6397 11.329 14.7803 11.4697C14.921 11.6103 15 11.8011 15 12V17.6906L16.9031 15.7875C17.0437 15.6472 17.2342 15.5685 17.4328 15.5685C17.6314 15.5685 17.8219 15.6472 17.9625 15.7875ZM15 3.75C13.4675 3.75064 11.9654 4.17814 10.6623 4.98455C9.35909 5.79097 8.30628 6.94443 7.62188 8.31562C7.33347 8.27046 7.04191 8.24852 6.75 8.25C5.1587 8.25 3.63258 8.88214 2.50736 10.0074C1.38214 11.1326 0.75 12.6587 0.75 14.25C0.75 15.8413 1.38214 17.3674 2.50736 18.4926C3.63258 19.6179 5.1587 20.25 6.75 20.25H9C9.19891 20.25 9.38968 20.171 9.53033 20.0303C9.67098 19.8897 9.75 19.6989 9.75 19.5C9.75 19.3011 9.67098 19.1103 9.53033 18.9697C9.38968 18.829 9.19891 18.75 9 18.75H6.75C5.55653 18.75 4.41193 18.2759 3.56802 17.432C2.72411 16.5881 2.25 15.4435 2.25 14.25C2.25 13.0565 2.72411 11.9119 3.56802 11.068C4.41193 10.2241 5.55653 9.75 6.75 9.75H7.05938C6.85023 10.4816 6.74606 11.2391 6.75 12C6.75 12.1989 6.82902 12.3897 6.96967 12.5303C7.11032 12.671 7.30109 12.75 7.5 12.75C7.69891 12.75 7.88968 12.671 8.03033 12.5303C8.17098 12.3897 8.25 12.1989 8.25 12C8.25 10.9304 8.50416 9.87621 8.99153 8.92416C9.47891 7.9721 10.1855 7.14949 11.0532 6.52412C11.9209 5.89874 12.9247 5.4885 13.982 5.3272C15.0394 5.1659 16.1199 5.25817 17.1345 5.59639C18.1492 5.93461 19.069 6.50911 19.818 7.27253C20.5671 8.03596 21.1241 8.96647 21.443 9.98737C21.7619 11.0083 21.8336 12.0903 21.6523 13.1444C21.4709 14.1985 21.0417 15.1944 20.4 16.05C20.2831 16.21 20.2333 16.4093 20.2613 16.6055C20.2893 16.8017 20.3929 16.9792 20.55 17.1C20.6788 17.1993 20.8374 17.2521 21 17.25C21.1164 17.25 21.2313 17.2229 21.3354 17.1708C21.4396 17.1187 21.5301 17.0431 21.6 16.95C22.5193 15.7243 23.0791 14.2668 23.2167 12.7409C23.3543 11.215 23.0642 9.68086 22.379 8.31049C21.6938 6.94011 20.6406 5.78762 19.3373 4.98213C18.034 4.17665 16.5321 3.75 15 3.75Z" fill="#0C1323"/>
</svg>
