<svg width="24" height="24" viewBox="0 0 24 24" fill="none" xmlns="http://www.w3.org/2000/svg">
<path d="M20.5875 3.82501C20.4618 3.76497 20.3221 3.74023 20.1834 3.75344C20.0447 3.76665 19.9121 3.81731 19.8 3.90001C17.1469 5.88751 14.8969 4.93126 12.3 3.81563C9.70312 2.70001 6.64688 1.38751 3.3 3.90001C3.20685 3.96987 3.13125 4.06046 3.07918 4.1646C3.02711 4.26874 3 4.38358 3 4.50001V20.25C3 20.4489 3.07902 20.6397 3.21967 20.7803C3.36032 20.921 3.55109 21 3.75 21C3.94891 21 4.13968 20.921 4.28033 20.7803C4.42098 20.6397 4.5 20.4489 4.5 20.25V16.1344C7.02187 14.4375 9.19688 15.3656 11.7 16.4438C13.2281 17.0906 14.8687 17.7938 16.6312 17.7938C17.925 17.7938 19.2844 17.4188 20.7 16.35C20.7926 16.2796 20.8678 16.189 20.9198 16.0849C20.9719 15.9809 20.9993 15.8663 21 15.75V4.50001C20.9989 4.36068 20.9599 4.22427 20.8872 4.10538C20.8146 3.98649 20.711 3.88958 20.5875 3.82501ZM19.5 5.85001V9.56251C18.0563 10.5375 16.725 10.65 15.375 10.3688V6.43126C16.6781 6.66563 18.0563 6.58126 19.5 5.85001V5.85001ZM13.875 6.04688V9.90938C13.3625 9.70938 12.8375 9.49376 12.3 9.26251C11.5969 8.96251 10.875 8.65313 10.125 8.40001V4.53751C10.6406 4.73438 11.1656 4.95938 11.7 5.19376C12.4031 5.49376 13.125 5.80313 13.875 6.04688V6.04688ZM8.625 4.08751V8.01563C7.32188 7.79063 5.94375 7.87501 4.5 8.59688V4.88438C5.94375 3.90938 7.275 3.79688 8.625 4.08751ZM4.5 14.4V10.3406C5.94375 9.36563 7.275 9.25313 8.625 9.53438V13.8188C7.32188 13.5938 5.94375 13.6688 4.5 14.4ZM10.125 14.2031V9.99376C10.6406 10.1813 11.1656 10.4063 11.7 10.6406C12.4031 10.9406 13.125 11.25 13.875 11.4938V15.7125C13.3594 15.5156 12.8344 15.2906 12.3 15.0656C11.5969 14.7656 10.875 14.4469 10.125 14.2031V14.2031ZM15.375 16.1625V11.8875C15.7901 11.9583 16.2102 11.996 16.6312 12C17.6302 12.0007 18.6145 11.7594 19.5 11.2969V15.3656C18.0563 16.3406 16.725 16.4531 15.375 16.1625Z" fill="#ED1C24"/>
</svg>
