<svg width="24" height="24" viewBox="0 0 24 24" fill="none" xmlns="http://www.w3.org/2000/svg">
<path d="M20.5875 3.8252C20.4618 3.76516 20.3221 3.74042 20.1834 3.75363C20.0447 3.76684 19.9121 3.81751 19.8 3.9002C17.1469 5.8877 14.8969 4.92208 12.3 3.80645C9.70312 2.69083 6.64688 1.3877 3.3 3.9002H3.29062L3.25313 3.92833L3.23438 3.94708L3.20625 3.9752L3.17813 4.00333L3.15938 4.03145L3.13125 4.05958C3.13125 4.06895 3.12188 4.07833 3.1125 4.0877L3.09375 4.1252C3.09375 4.13458 3.08438 4.14395 3.08438 4.15333C3.07469 4.16379 3.06818 4.1768 3.06563 4.19083C3.05625 4.2002 3.05625 4.20958 3.04688 4.22833C3.0375 4.24708 3.0375 4.24708 3.0375 4.25645C3.0375 4.26583 3.02812 4.28458 3.02812 4.29395C3.02812 4.30333 3.01875 4.3127 3.01875 4.32208C3.01875 4.33145 3.00937 4.3502 3.00937 4.35958V4.40645C3.00937 4.41583 3 4.43458 3 4.44395V20.2502C3 20.4491 3.07902 20.6399 3.21967 20.7805C3.36032 20.9212 3.55109 21.0002 3.75 21.0002C3.94891 21.0002 4.13968 20.9212 4.28033 20.7805C4.42098 20.6399 4.5 20.4491 4.5 20.2502V16.1346C7.02187 14.4377 9.19688 15.3658 11.7 16.444C13.2281 17.0908 14.8687 17.794 16.6312 17.794C17.925 17.794 19.2844 17.419 20.7 16.3502C20.7926 16.2798 20.8678 16.1892 20.9198 16.0851C20.9719 15.9811 20.9993 15.8665 21 15.7502V4.5002C20.9989 4.36087 20.9599 4.22446 20.8872 4.10557C20.8146 3.98668 20.711 3.88977 20.5875 3.8252ZM19.5 15.3658C16.9781 17.0627 14.8031 16.1346 12.3 15.0565C9.96562 14.0627 7.36875 12.9471 4.5 14.4002V4.88458C7.02187 3.1877 9.19688 4.11583 11.7 5.19395C14.0344 6.1877 16.6313 7.30333 19.5 5.8502V15.3658Z" fill="#0C1323"/>
</svg>
