<svg width="24" height="24" viewBox="0 0 24 24" fill="none" xmlns="http://www.w3.org/2000/svg">
<path d="M20.5875 3.82502C20.4618 3.76498 20.3221 3.74024 20.1834 3.75345C20.0447 3.76666 19.9121 3.81732 19.8 3.90002C17.1469 5.88752 14.8969 4.92189 12.3 3.80627C9.70312 2.69064 6.64688 1.38752 3.3 3.90002H3.29062L3.25313 3.92814L3.23438 3.94689L3.20625 3.97502L3.17813 4.00314L3.15938 4.03127L3.13125 4.05939C3.13125 4.06877 3.12188 4.07814 3.1125 4.08752L3.09375 4.12502C3.09375 4.13439 3.08438 4.14377 3.08438 4.15314C3.07469 4.16361 3.06818 4.17661 3.06563 4.19064C3.05625 4.20002 3.05625 4.20939 3.04688 4.22814C3.0375 4.24689 3.0375 4.24689 3.0375 4.25627C3.0375 4.26564 3.02812 4.28439 3.02812 4.29377C3.02812 4.30314 3.01875 4.31252 3.01875 4.32189C3.01875 4.33127 3.00937 4.35002 3.00937 4.35939V4.40627C3.00937 4.41564 3 4.43439 3 4.44377V20.25C3 20.4489 3.07902 20.6397 3.21967 20.7803C3.36032 20.921 3.55109 21 3.75 21C3.94891 21 4.13968 20.921 4.28033 20.7803C4.42098 20.6397 4.5 20.4489 4.5 20.25V16.1344C7.02187 14.4375 9.19688 15.3656 11.7 16.4438C13.2281 17.0906 14.8687 17.7938 16.6312 17.7938C17.925 17.7938 19.2844 17.4188 20.7 16.35C20.7926 16.2797 20.8678 16.189 20.9198 16.0849C20.9719 15.9809 20.9993 15.8663 21 15.75V4.50002C20.9989 4.36069 20.9599 4.22428 20.8872 4.10539C20.8146 3.98649 20.711 3.88958 20.5875 3.82502ZM19.5 15.3656C16.9781 17.0625 14.8031 16.1344 12.3 15.0563C9.96562 14.0625 7.36875 12.9469 4.5 14.4V4.88439C7.02187 3.18752 9.19688 4.11564 11.7 5.19377C14.0344 6.18752 16.6313 7.30314 19.5 5.85002V15.3656Z" fill="#ED1C24"/>
</svg>
