<svg width="24" height="24" viewBox="0 0 24 24" fill="none" xmlns="http://www.w3.org/2000/svg">
<path d="M21 6.37499C21 5.73965 20.8207 5.11722 20.4826 4.57927C20.1446 4.04133 19.6616 3.60973 19.0891 3.33412C18.5167 3.0585 17.8781 2.95006 17.2467 3.02127C16.6154 3.09248 16.017 3.34044 15.5203 3.73665C15.0237 4.13285 14.6489 4.6612 14.4392 5.26093C14.2295 5.86065 14.1933 6.50739 14.3348 7.12677C14.4763 7.74615 14.7898 8.313 15.2392 8.76213C15.6885 9.21126 16.2556 9.52443 16.875 9.66561V9.74999C16.875 10.1478 16.717 10.5293 16.4357 10.8106C16.1544 11.092 15.7728 11.25 15.375 11.25H8.62501C8.09841 11.2512 7.58129 11.3902 7.12501 11.6531V9.66561C7.93403 9.48122 8.64676 9.00526 9.12708 8.32865C9.60739 7.65204 9.82162 6.8222 9.72885 5.99764C9.63607 5.17308 9.24279 4.41159 8.62412 3.85863C8.00546 3.30567 7.20477 3 6.37501 3C5.54525 3 4.74456 3.30567 4.1259 3.85863C3.50723 4.41159 3.11395 5.17308 3.02117 5.99764C2.92839 6.8222 3.14262 7.65204 3.62294 8.32865C4.10326 9.00526 4.81599 9.48122 5.62501 9.66561V14.3344C4.81599 14.5188 4.10326 14.9947 3.62294 15.6713C3.14262 16.3479 2.92839 17.1778 3.02117 18.0023C3.11395 18.8269 3.50723 19.5884 4.1259 20.1413C4.74456 20.6943 5.54525 21 6.37501 21C7.20477 21 8.00546 20.6943 8.62412 20.1413C9.24279 19.5884 9.63607 18.8269 9.72885 18.0023C9.82162 17.1778 9.60739 16.3479 9.12708 15.6713C8.64676 14.9947 7.93403 14.5188 7.12501 14.3344V14.25C7.12501 13.8522 7.28304 13.4706 7.56435 13.1893C7.84565 12.908 8.22718 12.75 8.62501 12.75H15.375C16.1699 12.7475 16.9315 12.4307 17.4936 11.8686C18.0557 11.3065 18.3725 10.5449 18.375 9.74999V9.66561C19.1198 9.49412 19.7847 9.07555 20.2613 8.47805C20.738 7.88055 20.9983 7.13931 21 6.37499ZM4.50001 6.37499C4.50001 6.00415 4.60998 5.64164 4.816 5.33329C5.02203 5.02495 5.31487 4.78463 5.65748 4.64271C6.00009 4.5008 6.37709 4.46367 6.7408 4.53602C7.10452 4.60836 7.43861 4.78694 7.70083 5.04916C7.96306 5.31139 8.14163 5.64548 8.21398 6.00919C8.28633 6.37291 8.2492 6.74991 8.10728 7.09252C7.96537 7.43513 7.72505 7.72797 7.4167 7.93399C7.10836 8.14002 6.74585 8.24999 6.37501 8.24999C5.87849 8.24752 5.403 8.04919 5.05191 7.69809C4.70081 7.34699 4.50247 6.87151 4.50001 6.37499ZM8.25001 17.625C8.25001 17.9958 8.14004 18.3583 7.93402 18.6667C7.72799 18.975 7.43515 19.2153 7.09254 19.3573C6.74993 19.4992 6.37293 19.5363 6.00921 19.464C5.6455 19.3916 5.31141 19.213 5.04918 18.9508C4.78696 18.6886 4.60838 18.3545 4.53604 17.9908C4.46369 17.6271 4.50082 17.2501 4.64273 16.9075C4.78465 16.5648 5.02497 16.272 5.33331 16.066C5.64166 15.86 6.00417 15.75 6.37501 15.75C6.87153 15.7525 7.34701 15.9508 7.69811 16.3019C8.04921 16.653 8.24755 17.1285 8.25001 17.625ZM17.625 8.24999C17.2542 8.24999 16.8917 8.14002 16.5833 7.93399C16.275 7.72797 16.0347 7.43513 15.8927 7.09252C15.7508 6.74991 15.7137 6.37291 15.786 6.00919C15.8584 5.64548 16.037 5.31139 16.2992 5.04916C16.5614 4.78694 16.8955 4.60836 17.2592 4.53602C17.6229 4.46367 17.9999 4.5008 18.3425 4.64271C18.6852 4.78463 18.978 5.02495 19.184 5.33329C19.39 5.64164 19.5 6.00415 19.5 6.37499C19.4975 6.87151 19.2992 7.34699 18.9481 7.69809C18.597 8.04919 18.1215 8.24752 17.625 8.24999Z" fill="#0C1323"/>
</svg>
