<svg width="24" height="24" viewBox="0 0 24 24" fill="none" xmlns="http://www.w3.org/2000/svg">
<path d="M18.7594 21H14.1281C14.9085 20.3031 15.6443 19.5579 16.3312 18.7687C18.9 15.8156 20.2594 12.6937 20.2594 9.75C20.2594 7.56196 19.3902 5.46354 17.843 3.91637C16.2958 2.36919 14.1974 1.5 12.0094 1.5C9.82134 1.5 7.72292 2.36919 6.17574 3.91637C4.62857 5.46354 3.75937 7.56196 3.75937 9.75C3.75937 12.6937 5.11875 15.8156 7.69687 18.7687C8.38135 19.5602 9.11732 20.3055 9.9 21H5.25937C5.06046 21 4.8697 21.079 4.72904 21.2197C4.58839 21.3603 4.50937 21.5511 4.50937 21.75C4.50937 21.9489 4.58839 22.1397 4.72904 22.2803C4.8697 22.421 5.06046 22.5 5.25937 22.5H18.7594C18.9583 22.5 19.149 22.421 19.2897 22.2803C19.4304 22.1397 19.5094 21.9489 19.5094 21.75C19.5094 21.5511 19.4304 21.3603 19.2897 21.2197C19.149 21.079 18.9583 21 18.7594 21ZM5.25937 9.75C5.25937 7.95979 5.97053 6.2429 7.2364 4.97703C8.50227 3.71116 10.2192 3 12.0094 3C13.7996 3 15.5165 3.71116 16.7823 4.97703C18.0482 6.2429 18.7594 7.95979 18.7594 9.75C18.7594 15.1125 13.5562 19.5938 12.0094 20.8125C10.4625 19.5938 5.25937 15.1125 5.25937 9.75ZM15.7594 9.75C15.7594 9.00832 15.5394 8.2833 15.1274 7.66661C14.7153 7.04993 14.1297 6.56928 13.4444 6.28545C12.7592 6.00162 12.0052 5.92736 11.2778 6.07205C10.5504 6.21675 9.88217 6.5739 9.35772 7.09835C8.83328 7.6228 8.47612 8.29098 8.33143 9.01841C8.18673 9.74584 8.261 10.4998 8.54483 11.1851C8.82865 11.8703 9.3093 12.456 9.92598 12.868C10.5427 13.2801 11.2677 13.5 12.0094 13.5C13.0039 13.5 13.9578 13.1049 14.661 12.4017C15.3643 11.6984 15.7594 10.7446 15.7594 9.75ZM9.75937 9.75C9.75937 9.30499 9.89133 8.86998 10.1386 8.49997C10.3858 8.12996 10.7372 7.84157 11.1483 7.67127C11.5595 7.50097 12.0119 7.45642 12.4483 7.54323C12.8848 7.63005 13.2857 7.84434 13.6004 8.15901C13.915 8.47368 14.1293 8.87459 14.2161 9.31105C14.303 9.7475 14.2584 10.1999 14.0881 10.611C13.9178 11.0222 13.6294 11.3736 13.2594 11.6208C12.8894 11.868 12.4544 12 12.0094 12C11.4134 11.9975 10.8425 11.7597 10.4211 11.3383C9.99969 10.9168 9.76184 10.346 9.75937 9.75V9.75Z" fill="#0C1323"/>
</svg>
