<svg width="24" height="24" viewBox="0 0 24 24" fill="none" xmlns="http://www.w3.org/2000/svg">
<path d="M14.2219 3.55325C14.2468 3.45792 14.2905 3.36851 14.3505 3.29029C14.4104 3.21206 14.4854 3.14658 14.5709 3.09769C14.6565 3.04879 14.751 3.01747 14.8488 3.00555C14.9466 2.99362 15.0458 3.00134 15.1406 3.02825C16.5387 3.40323 17.8136 4.13946 18.8371 5.16301C19.8607 6.18656 20.5969 7.4614 20.9719 8.8595C20.9988 8.95431 21.0065 9.05353 20.9946 9.15135C20.9827 9.24918 20.9513 9.34364 20.9024 9.4292C20.8535 9.51477 20.7881 9.58971 20.7098 9.64965C20.6316 9.70958 20.5422 9.75331 20.4469 9.77825C20.3829 9.79679 20.3166 9.80625 20.25 9.80638C20.0845 9.80543 19.9239 9.74974 19.7933 9.64799C19.6627 9.54624 19.5695 9.40416 19.5281 9.24388C19.2162 8.10227 18.6121 7.06171 17.7752 6.22489C16.9384 5.38806 15.8979 4.7839 14.7562 4.472C14.6601 4.44809 14.5697 4.40511 14.4904 4.34561C14.4111 4.28611 14.3446 4.21131 14.2948 4.12564C14.2449 4.03996 14.2128 3.94515 14.2003 3.84684C14.1878 3.74852 14.1951 3.64868 14.2219 3.55325ZM13.9781 7.36888C14.6127 7.54258 15.1911 7.8786 15.6563 8.34382C16.1215 8.80904 16.4575 9.38742 16.6312 10.022C16.6712 10.1831 16.764 10.3261 16.8949 10.4281C17.0258 10.5301 17.1872 10.5852 17.3531 10.5845C17.4167 10.5851 17.48 10.5756 17.5406 10.5564C17.6368 10.5325 17.7272 10.4895 17.8065 10.43C17.8857 10.3705 17.9523 10.2957 18.0021 10.21C18.0519 10.1243 18.0841 10.0295 18.0966 9.93121C18.1091 9.83289 18.1018 9.73306 18.075 9.63763C17.8382 8.74654 17.3702 7.93386 16.7182 7.28191C16.0663 6.62995 15.2536 6.16189 14.3625 5.92513C14.2647 5.88949 14.1605 5.87461 14.0566 5.88144C13.9527 5.88826 13.8514 5.91665 13.759 5.96479C13.6667 6.01293 13.5854 6.07976 13.5203 6.16104C13.4553 6.24231 13.4078 6.33625 13.381 6.43687C13.3542 6.53748 13.3487 6.64258 13.3647 6.74545C13.3808 6.84833 13.4181 6.94674 13.4743 7.03441C13.5304 7.12208 13.6042 7.1971 13.691 7.25468C13.7777 7.31227 13.8755 7.35116 13.9781 7.36888ZM21.7125 16.4158C21.5467 17.6818 20.9267 18.8445 19.9679 19.6877C19.0092 20.5309 17.7768 20.9973 16.5 21.0001C9.05625 21.0001 3 14.9439 3 7.50013C3.00281 6.22331 3.46919 4.99095 4.31243 4.03218C5.15566 3.07342 6.31837 2.45348 7.58437 2.28763C7.90711 2.25185 8.23284 2.31979 8.51435 2.48162C8.79586 2.64345 9.01851 2.89074 9.15 3.18763L11.0344 7.5845C11.1321 7.81273 11.1713 8.06176 11.1484 8.30897C11.1255 8.55619 11.0412 8.79376 10.9031 9.00013L9.34687 11.3814C10.0516 12.8115 11.2127 13.9661 12.6469 14.6626L15 13.097C15.2061 12.958 15.4443 12.8739 15.692 12.8526C15.9397 12.8313 16.1888 12.8734 16.4156 12.9751L20.8125 14.8501C21.1094 14.9816 21.3567 15.2043 21.5185 15.4858C21.6803 15.7673 21.7483 16.093 21.7125 16.4158ZM20.2219 16.2283L15.825 14.3533L13.4812 15.9189C13.2656 16.0614 13.0168 16.1459 12.7589 16.1639C12.501 16.182 12.2428 16.1331 12.0094 16.022C10.2628 15.1771 8.84994 13.7709 7.99687 12.0283C7.8844 11.7956 7.83393 11.5379 7.85036 11.28C7.86678 11.0221 7.94955 10.7729 8.09062 10.5564L9.65625 8.17513L7.77187 3.77825C6.86714 3.89456 6.03582 4.33664 5.43356 5.02173C4.8313 5.70683 4.4994 6.58795 4.5 7.50013C4.50248 10.682 5.76756 13.7328 8.01746 15.9827C10.2674 18.2326 13.3182 19.4976 16.5 19.5001C17.4122 19.5007 18.2933 19.1688 18.9784 18.5666C19.6635 17.9643 20.1056 17.133 20.2219 16.2283Z" fill="#0C1323"/>
</svg>
