<svg width="24" height="24" viewBox="0 0 24 24" fill="none" xmlns="http://www.w3.org/2000/svg">
<path d="M22.5 5.25V11.25C22.5 11.4489 22.421 11.6397 22.2803 11.7803C22.1397 11.921 21.9489 12 21.75 12C21.5511 12 21.3603 11.921 21.2197 11.7803C21.079 11.6397 21 11.4489 21 11.25V7.05938L13.2844 14.7844C13.1422 14.9252 12.9501 15.0042 12.75 15.0042C12.5499 15.0042 12.3578 14.9252 12.2156 14.7844L9.00001 11.5594L2.78438 17.7844C2.64103 17.923 2.44942 18.0005 2.25001 18.0005C2.0506 18.0005 1.85899 17.923 1.71563 17.7844C1.5748 17.6422 1.49579 17.4501 1.49579 17.25C1.49579 17.0499 1.5748 16.8578 1.71563 16.7156L8.46563 9.96563C8.60783 9.82479 8.79987 9.74578 9.00001 9.74578C9.20014 9.74578 9.39219 9.82479 9.53438 9.96563L12.75 13.1906L19.9406 6H15.75C15.5511 6 15.3603 5.92098 15.2197 5.78033C15.079 5.63968 15 5.44891 15 5.25C15 5.05109 15.079 4.86032 15.2197 4.71967C15.3603 4.57902 15.5511 4.5 15.75 4.5H21.75C21.9489 4.5 22.1397 4.57902 22.2803 4.71967C22.421 4.86032 22.5 5.05109 22.5 5.25Z" fill="#0C1323"/>
</svg>
