<svg width="24" height="24" viewBox="0 0 24 24" fill="none" xmlns="http://www.w3.org/2000/svg">
<path d="M22.5001 5.25V11.25C22.5001 11.4489 22.421 11.6397 22.2804 11.7803C22.1397 11.921 21.949 12 21.7501 12C21.5512 12 21.3604 11.921 21.2197 11.7803C21.0791 11.6397 21.0001 11.4489 21.0001 11.25V7.05938L13.2844 14.7844C13.1422 14.9252 12.9502 15.0042 12.7501 15.0042C12.5499 15.0042 12.3579 14.9252 12.2157 14.7844L9.00007 11.5594L2.78444 17.7844C2.64109 17.923 2.44948 18.0005 2.25007 18.0005C2.05066 18.0005 1.85905 17.923 1.71569 17.7844C1.57486 17.6422 1.49585 17.4501 1.49585 17.25C1.49585 17.0499 1.57486 16.8578 1.71569 16.7156L8.46569 9.96563C8.60789 9.82479 8.79993 9.74578 9.00007 9.74578C9.2002 9.74578 9.39225 9.82479 9.53444 9.96563L12.7501 13.1906L19.9407 6H15.7501C15.5512 6 15.3604 5.92098 15.2197 5.78033C15.0791 5.63968 15.0001 5.44891 15.0001 5.25C15.0001 5.05109 15.0791 4.86032 15.2197 4.71967C15.3604 4.57902 15.5512 4.5 15.7501 4.5H21.7501C21.949 4.5 22.1397 4.57902 22.2804 4.71967C22.421 4.86032 22.5001 5.05109 22.5001 5.25Z" fill="#ED1C24"/>
</svg>
