<svg width="24" height="24" viewBox="0 0 24 24" fill="none" xmlns="http://www.w3.org/2000/svg">
<path d="M21.2156 6.36552C21.1744 6.27177 21.1151 6.18707 21.0411 6.11629C20.9671 6.0455 20.8799 5.99002 20.7844 5.95302C20.6889 5.91719 20.5868 5.902 20.485 5.90847C20.3832 5.91493 20.284 5.9429 20.1937 5.99052C20.1171 6.01974 20.0494 6.06817 19.9969 6.13115L16.3406 9.77802L14.5781 9.42177L14.2219 7.65927L17.8687 4.00302C17.9317 3.95054 17.9801 3.88274 18.0094 3.80615C18.057 3.71594 18.085 3.61666 18.0914 3.51485C18.0979 3.41305 18.0827 3.31103 18.0469 3.21552C18.0099 3.12003 17.9544 3.03278 17.8836 2.95878C17.8128 2.88478 17.7281 2.82548 17.6344 2.78427C16.3902 2.25799 15.0167 2.11713 13.6916 2.37994C12.3665 2.64274 11.1507 3.2971 10.2016 4.25838C9.25241 5.21966 8.61353 6.44362 8.36756 7.77196C8.12158 9.10029 8.27985 10.4719 8.82187 11.7093L3.16875 16.5936C3.15937 16.603 3.14062 16.6124 3.13125 16.6311C2.85233 16.909 2.63101 17.2392 2.48 17.6028C2.32899 17.9664 2.25125 18.3562 2.25125 18.7499C2.25125 19.1436 2.32899 19.5334 2.48 19.897C2.63101 20.2606 2.85233 20.5908 3.13125 20.8686C3.4091 21.1476 3.7393 21.3689 4.10288 21.5199C4.46647 21.6709 4.8563 21.7486 5.25 21.7486C5.6437 21.7486 6.03353 21.6709 6.39711 21.5199C6.7607 21.3689 7.09089 21.1476 7.36875 20.8686C7.3875 20.8593 7.39687 20.8405 7.40625 20.8311L12.2906 15.178C13.528 15.72 14.8996 15.8783 16.2279 15.6323C17.5563 15.3864 18.7802 14.7475 19.7415 13.7983C20.7028 12.8492 21.3572 11.6334 21.62 10.3083C21.8828 8.98318 21.7419 7.60971 21.2156 6.36552V6.36552ZM18.7125 12.7124C17.9078 13.5124 16.8663 14.0312 15.743 14.1917C14.6197 14.3522 13.4746 14.1457 12.4781 13.603C12.3261 13.5164 12.1488 13.485 11.9763 13.5141C11.8038 13.5431 11.6466 13.6308 11.5312 13.7624L6.29062 19.828C6.00529 20.0866 5.63145 20.2255 5.24653 20.216C4.8616 20.2065 4.49505 20.0494 4.22279 19.7771C3.95052 19.5048 3.79338 19.1383 3.7839 18.7534C3.77442 18.3684 3.91333 17.9946 4.17187 17.7093L10.2375 12.4686C10.3676 12.3566 10.4553 12.2034 10.4861 12.0344C10.5168 11.8655 10.4886 11.6912 10.4062 11.5405C9.92778 10.6714 9.70491 9.68461 9.76338 8.69419C9.82186 7.70377 10.1593 6.75009 10.7367 5.94327C11.3141 5.13646 12.108 4.50943 13.0266 4.13459C13.9452 3.75975 14.9511 3.65238 15.9281 3.8249L12.8812 6.88115C12.7941 6.9681 12.7297 7.07515 12.6938 7.19287C12.6578 7.31059 12.6513 7.43535 12.675 7.55615L13.2 10.2093C13.2332 10.3532 13.3061 10.4849 13.4106 10.5893C13.515 10.6938 13.6467 10.7667 13.7906 10.7999L16.4437 11.3249C16.5645 11.3486 16.6893 11.3421 16.807 11.3061C16.9247 11.2702 17.0318 11.2058 17.1187 11.1186L20.175 8.07177C20.3246 8.9059 20.2697 9.76386 20.015 10.5721C19.7602 11.3803 19.3133 12.1148 18.7125 12.7124V12.7124Z" fill="#0C1323"/>
</svg>
